<svg xmlns="http://www.w3.org/2000/svg" viewBox="0 0 48 48" width="48" height="48">
  <path fill="#0068ff" d="M24,4C12.95,4,4,12.95,4,24s8.95,20,20,20s20-8.95,20-20S35.05,4,24,4z"/>
  <path fill="#ffffff" d="M31.25,18.42c-0.1-0.29-0.45-0.34-0.64-0.1L23.3,25.86v-6.95c0-0.28-0.22-0.5-0.5-0.5h-2.5
    c-0.28,0-0.5,0.22-0.5,0.5v11.5c0,0.28,0.22,0.5,0.5,0.5h2.5c0.26,0,0.48-0.2,0.5-0.46l7.46-7.85v6.82c0,0.28,0.22,0.5,0.5,0.5h2.5
    c0.28,0,0.5-0.22,0.5-0.5v-10c0-0.3-0.2-0.54-0.48-0.58L31.25,18.42z"/>
</svg>
